<?xml version="1.0" encoding="UTF-8" standalone="no"?>
<svg width="36px" height="24px" viewBox="0 0 36 24" version="1.1" xmlns="http://www.w3.org/2000/svg" xmlns:xlink="http://www.w3.org/1999/xlink" xmlns:sketch="http://www.bohemiancoding.com/sketch/ns">
    <!-- Generator: Sketch 3.3.2 (12043) - http://www.bohemiancoding.com/sketch -->
    <title>Fill 58</title>
    <desc>Created with Sketch.</desc>
    <defs></defs>
    <g id="Welcome" stroke="none" stroke-width="1" fill="none" fill-rule="evenodd" sketch:type="MSPage">
        <g id="NodeFire-UX---My-Nodes-#2" sketch:type="MSArtboardGroup" transform="translate(-34.000000, -37.000000)" fill="#D8D8D8">
            <g id="Top-menu-Copy" sketch:type="MSLayerGroup">
                <path d="M34,41.5 L34,38.5 C34,38.08 34.145,37.725 34.435,37.435 C34.725,37.146 35.08,37 35.5,37 L68.5,37 C68.92,37 69.275,37.146 69.566,37.435 C69.855,37.725 70,38.08 70,38.5 L70,41.5 C70,41.9 69.855,42.25 69.566,42.55 C69.275,42.85 68.92,43 68.5,43 L35.5,43 C35.08,43 34.725,42.85 34.435,42.55 C34.145,42.25 34,41.9 34,41.5 C34,41.5 34,41.9 34,41.5 L34,41.5 L34,41.5 Z M34,50.5 L34,47.5 C34,47.08 34.145,46.725 34.435,46.435 C34.725,46.146 35.08,46 35.5,46 L68.5,46 C68.92,46 69.275,46.146 69.566,46.435 C69.855,46.725 70,47.08 70,47.5 L70,50.5 C70,50.9 69.855,51.25 69.566,51.55 C69.275,51.85 68.92,52 68.5,52 L35.5,52 C35.08,52 34.725,51.85 34.435,51.55 C34.145,51.25 34,50.9 34,50.5 C34,50.5 34,50.9 34,50.5 L34,50.5 L34,50.5 Z M34,59.5 L34,56.5 C34,56.08 34.145,55.725 34.435,55.435 C34.725,55.146 35.08,55 35.5,55 L68.5,55 C68.92,55 69.275,55.146 69.566,55.435 C69.855,55.725 70,56.08 70,56.5 L70,59.5 C70,59.9 69.855,60.25 69.566,60.55 C69.275,60.85 68.92,61 68.5,61 L35.5,61 C35.08,61 34.725,60.85 34.435,60.55 C34.145,60.25 34,59.9 34,59.5 C34,59.5 34,59.9 34,59.5 L34,59.5 L34,59.5 Z" id="Fill-58" sketch:type="MSShapeGroup"></path>
            </g>
        </g>
    </g>
</svg>